<svg width="162" height="42" viewBox="0 0 162 42" fill="none" xmlns="http://www.w3.org/2000/svg">
<path fill-rule="evenodd" clip-rule="evenodd" d="M9.91798 27.448C10.5666 28.2225 11.3831 28.8431 12.3023 29.2631C14.3554 30.1263 16.6744 30.1263 18.7274 29.2631C19.6513 28.8478 20.4632 28.2272 21.1117 27.448C21.779 26.6314 22.2876 25.6936 22.6002 24.6857C23.2861 22.4227 23.2861 20.0057 22.6002 17.7427C22.2876 16.7348 21.779 15.7969 21.1117 14.9804C20.4632 14.2012 19.6513 13.5806 18.7274 13.1653C16.6744 12.3021 14.3554 12.3021 12.3023 13.1653C11.3831 13.5806 10.5666 14.2012 9.91798 14.9804C9.25074 15.7969 8.74214 16.7348 8.42952 17.7427C7.74362 20.0057 7.74362 22.4227 8.42952 24.6857C8.74214 25.6936 9.25074 26.6314 9.91798 27.448ZM10.7439 18.3213C10.8932 17.4907 11.1778 16.6928 11.5837 15.9556C11.943 15.307 12.4563 14.7611 13.0815 14.3598C13.7581 13.9492 14.5373 13.7486 15.3259 13.7719C16.1378 13.7532 16.945 13.9539 17.6496 14.3598C18.3121 14.7564 18.8674 15.3023 19.278 15.9556C19.7306 16.6835 20.0572 17.4814 20.2392 18.3213C20.4492 19.2731 20.5565 20.239 20.5518 21.2142C20.5518 22.1847 20.4538 23.1552 20.2485 24.1071C20.0759 24.9377 19.7773 25.7355 19.362 26.4728C18.998 27.1167 18.4848 27.6626 17.8642 28.0686C17.225 28.4698 16.4831 28.6751 15.7318 28.6565C14.9153 28.6751 14.1127 28.4745 13.4035 28.0686C12.7456 27.6673 12.1857 27.1214 11.7751 26.4728C11.3224 25.7449 10.9912 24.9423 10.8045 24.1071C10.5852 23.1599 10.4779 22.1894 10.4826 21.2142C10.4779 20.2437 10.5619 19.2731 10.7439 18.3213ZM19.6139 32.1933C18.8161 32.002 18.0228 31.792 17.2436 31.5681C16.4644 31.3441 15.6805 31.1341 14.9059 30.9428C14.1314 30.7515 13.3428 30.6535 12.5449 30.6535C12.1997 30.6535 11.8544 30.6769 11.5138 30.7235L10.7905 31.2041C11.8077 31.4607 12.8016 31.778 13.7768 32.1653C14.696 32.5339 15.5639 32.8839 16.3804 33.2198C17.1923 33.5558 17.9622 33.8451 18.6807 34.0877C19.3433 34.3163 20.0386 34.4423 20.7431 34.447C21.5037 34.4657 22.2502 34.2603 22.8988 33.8591C23.5987 33.4298 24.2566 32.9352 24.8632 32.3799L24.7466 32.044C24.3033 32.198 23.846 32.31 23.3794 32.3799C22.9408 32.4453 22.5022 32.4733 22.0589 32.4779C21.2331 32.4779 20.4165 32.3799 19.6139 32.1886V32.1933ZM27.5415 24.3124C27.5415 26.1835 28.0688 27.574 29.1233 28.4792C30.1778 29.3844 31.7036 29.837 33.7053 29.837C34.4892 29.8463 35.2684 29.7297 36.015 29.487C36.6822 29.2724 37.2888 28.9038 37.7927 28.4185C38.3013 27.9006 38.6886 27.2753 38.9312 26.5941C39.2205 25.7449 39.3558 24.849 39.3372 23.9531V14.3225C39.6638 14.2385 39.9811 14.1265 40.2844 13.9865C40.597 13.8419 40.905 13.6832 41.2083 13.5059V12.8107H36.099V13.5059C36.3789 13.6599 36.6682 13.7999 36.9622 13.9259C37.2841 14.0612 37.6248 14.1918 37.9934 14.3225V23.8738C37.9934 25.4696 37.6434 26.6174 36.9389 27.3127C36.1363 28.0452 35.0724 28.4185 33.9899 28.3532C33.3974 28.3625 32.8048 28.2832 32.2308 28.1245C31.7409 27.9892 31.2883 27.7373 30.9244 27.3826C30.5464 27 30.2711 26.5334 30.1171 26.0155C29.9165 25.3296 29.8232 24.611 29.8418 23.8971V14.1032C30.1451 14.0239 30.4484 13.9352 30.7564 13.8419C31.0643 13.7486 31.363 13.6319 31.6663 13.5059V12.8154H25.5771V13.5106C26.1977 13.8046 26.8603 14.0099 27.5415 14.1125V24.3217V24.3124ZM54.9683 27.532C54.9217 26.8414 54.8423 26.1648 54.7304 25.4882H54.1284L52.9573 28.3718H47.442V21.6668H51.3475L52.2854 23.4912H52.8826C52.9806 21.8768 52.9806 20.253 52.8826 18.6385H52.2854L51.3475 20.4163H47.442V14.0519H52.668L53.6525 16.6928H54.2731C54.3524 16.0349 54.4131 15.3817 54.4551 14.7331C54.4971 14.0845 54.525 13.4406 54.539 12.8014H43.1726V13.5013C43.4946 13.6319 43.8212 13.7439 44.1572 13.8512C44.4791 13.9539 44.8104 14.0379 45.1417 14.1032V28.3485C44.4651 28.4558 43.8026 28.6471 43.1726 28.9224V29.6177H54.9917C55.0243 28.9224 55.015 28.2225 54.9683 27.5273V27.532ZM65.8495 27.8586C65.5042 28.1339 65.1122 28.3345 64.6876 28.4605C64.221 28.6005 63.7358 28.6705 63.2505 28.6658C62.7839 28.6891 62.322 28.6191 61.8834 28.4605C61.6081 28.3438 61.3561 28.1759 61.1415 27.9659L60.1569 24.4337H59.5363C59.471 24.7044 59.4057 25.0356 59.345 25.4183C59.2844 25.8009 59.2191 26.1975 59.1631 26.6081C59.1071 27.0187 59.0604 27.4106 59.0184 27.7979C58.9764 28.1852 58.9531 28.5118 58.9344 28.7825C59.4524 29.1371 60.0263 29.3984 60.6375 29.5523C61.5194 29.8043 62.4339 29.9256 63.3485 29.9116C64.1744 29.921 65.0003 29.809 65.7935 29.5757C66.456 29.3797 67.0766 29.0531 67.6132 28.6145C68.1031 28.2039 68.4951 27.6859 68.7517 27.1027C69.0223 26.4821 69.1577 25.8102 69.1483 25.1336C69.1763 24.3544 68.971 23.5845 68.5557 22.9219C68.1591 22.3247 67.6552 21.8021 67.072 21.3868C66.47 20.9482 65.8261 20.5656 65.1542 20.2483C64.473 19.9217 63.8337 19.5811 63.2412 19.2265C62.6859 18.9092 62.182 18.5032 61.7574 18.0273C61.3561 17.57 61.1461 16.9774 61.1648 16.3709C61.1228 15.657 61.3981 14.9571 61.916 14.4625C62.4666 13.9865 63.1758 13.7439 63.8991 13.7766C64.3703 13.7766 64.8463 13.8092 65.3129 13.8745C65.6908 13.9212 66.0594 14.0192 66.414 14.1638L67.3752 17.4534H67.9958C68.0611 17.1827 68.1265 16.8655 68.1871 16.5062C68.2478 16.1469 68.3131 15.7736 68.3691 15.391C68.4251 15.0084 68.4718 14.6351 68.5138 14.2758C68.5511 13.9585 68.5697 13.6459 68.5744 13.3286C67.9632 13.0627 67.3239 12.8714 66.666 12.764C65.7841 12.6054 64.8883 12.5307 63.9924 12.5354C63.3018 12.5261 62.6159 12.6287 61.958 12.834C61.3841 13.016 60.8522 13.3053 60.3856 13.6879C59.947 14.0519 59.6017 14.5138 59.3684 15.0317C58.8178 16.3709 58.9018 17.8826 59.5923 19.1518C59.9796 19.7631 60.4789 20.3043 61.0575 20.7382C61.6501 21.1862 62.2893 21.5688 62.9612 21.8768C63.6518 22.1987 64.2863 22.5253 64.8696 22.8613C65.4155 23.1646 65.9054 23.5565 66.3301 24.0138C66.7267 24.4571 66.9366 25.031 66.918 25.6236C66.9273 26.0668 66.8293 26.5101 66.6287 26.9067C66.442 27.28 66.1761 27.6019 65.8495 27.8632V27.8586ZM98.9921 28.9318C98.3342 28.6471 97.639 28.4512 96.9298 28.3578V22.1334H101.199L102.062 23.7432H102.636C102.702 23.0059 102.734 22.2734 102.744 21.5455C102.753 20.8176 102.716 20.0943 102.636 19.3711H102.062L101.199 20.8829H96.9298V14.0612H102.277L103.257 16.7021H103.882C103.961 16.0442 104.022 15.391 104.064 14.7331C104.106 14.0752 104.134 13.4359 104.148 12.8107H92.903V13.5059C93.1503 13.6272 93.4069 13.7392 93.6682 13.8326C93.9809 13.9445 94.3028 14.0379 94.6294 14.1078V28.3532C94.3308 28.4138 94.0322 28.4932 93.7429 28.5911C93.4583 28.6845 93.1736 28.7965 92.903 28.9271V29.6223H98.9921V28.9224V28.9318ZM111.544 28.9318C110.881 28.6565 110.191 28.4605 109.481 28.3578L111.054 23.9625H116.751L118.375 28.3578C118.053 28.4232 117.726 28.5025 117.39 28.5958C117.059 28.6891 116.732 28.8011 116.41 28.9318V29.627H122.593V28.9271C122.322 28.7685 122.028 28.6471 121.72 28.5678C121.408 28.4885 121.09 28.4138 120.773 28.3532L114.707 12.5214H114.012L107.946 28.3532C107.354 28.4885 106.775 28.6798 106.22 28.9271V29.6223H111.544V28.9271V28.9318ZM113.368 17.6633L113.965 15.5496H114.012L114.465 17.6167L116.35 22.7073H111.53L113.368 17.6633ZM137.902 28.4232C137.902 27.9752 137.888 27.5133 137.865 27.042C137.841 26.5708 137.809 26.1135 137.771 25.6749C137.734 25.2363 137.687 24.8443 137.636 24.5084H137.015L135.602 28.3765H130.086V14.1078C130.474 14.0612 130.856 13.9819 131.234 13.8792C131.626 13.7719 132.009 13.6506 132.387 13.5059V12.8107H125.817V13.5059C126.111 13.6459 126.419 13.7579 126.732 13.8559C127.077 13.9632 127.431 14.0472 127.786 14.1078V28.3532C127.497 28.3998 127.194 28.4652 126.872 28.5445C126.508 28.6425 126.158 28.7685 125.817 28.9271V29.6223H137.879C137.893 29.2677 137.902 28.8711 137.902 28.4185V28.4232ZM153.939 28.4232C153.939 27.9752 153.925 27.5133 153.902 27.042C153.878 26.5708 153.846 26.1135 153.804 25.6749C153.762 25.2363 153.72 24.8443 153.673 24.5084H153.048L151.634 28.3765H146.124V14.1078C146.511 14.0612 146.893 13.9819 147.271 13.8792C147.654 13.7766 148.041 13.6506 148.424 13.5059V12.8107H141.854V13.5059C142.148 13.6459 142.451 13.7579 142.764 13.8559C143.109 13.9632 143.464 14.0472 143.819 14.1078V28.3532C143.534 28.3998 143.231 28.4652 142.909 28.5445C142.545 28.6425 142.195 28.7685 141.854 28.9271V29.6223H153.911C153.93 29.2677 153.939 28.8711 153.939 28.4185V28.4232ZM88.1343 15.1717L90.2667 13.6786L88.1343 12.1854V12.806H73.8657V12.1854L71.7333 13.6786L73.8657 15.1717V14.4391L78.9796 14.4625V37.8765L80.958 41.0307V41.0867L80.9767 41.0634L81.0093 41.1194L81.0187 40.9981L82.9924 37.8532V14.4671H88.1343V15.1717ZM81.1493 37.6245L81 37.8158L80.8507 37.6245V14.6631H81.1493V37.6245ZM80.0201 8.10735C80.0388 8.07469 80.0575 8.04203 80.0761 8.01404C80.2768 7.75274 80.5474 7.5521 80.8554 7.43078C80.9347 7.38879 81.0233 7.33746 81.126 7.27681C81.4713 7.11816 81.6719 6.75421 81.6252 6.38093C81.6112 6.31561 81.5973 6.25961 81.5833 6.20362C81.4993 6.35293 81.3873 6.48358 81.252 6.5909C81.028 6.78221 80.6454 6.88486 80.4121 7.09016C80.3234 7.16482 80.2441 7.25347 80.1741 7.3468C80.0481 7.51477 79.9875 7.71541 79.9968 7.92538C79.9968 7.98604 80.0061 8.0467 80.0201 8.10735ZM79.9688 9.19454C79.9875 9.16187 80.0061 9.12921 80.0295 9.10121C80.2488 8.83525 80.5381 8.63461 80.86 8.52263C80.944 8.48064 81.0373 8.42931 81.1446 8.36865C81.5039 8.21934 81.7186 7.85539 81.6812 7.46811C81.6672 7.40279 81.6486 7.3468 81.6346 7.2908C81.5413 7.44012 81.4199 7.57543 81.2753 7.67808C81.0373 7.86939 80.6314 7.97204 80.3794 8.17734C80.2861 8.252 80.2021 8.34066 80.1275 8.43398C79.9968 8.59729 79.9315 8.80259 79.9455 9.01256C79.9455 9.07322 79.9548 9.13388 79.9688 9.19454ZM79.9175 10.2957C79.9361 10.2631 79.9548 10.2304 79.9781 10.2024C80.2161 9.93643 80.5194 9.73579 80.86 9.62847C80.9487 9.58648 81.0467 9.53515 81.1633 9.4745C81.5366 9.33918 81.7699 8.9659 81.7326 8.56929C81.7186 8.50397 81.6999 8.44797 81.6859 8.39198C81.5833 8.54596 81.4526 8.67661 81.3033 8.78393C81.0513 8.97523 80.6174 9.08255 80.3514 9.28319C80.2534 9.35785 80.1648 9.44183 80.0855 9.53515C79.9455 9.6938 79.8755 9.8991 79.8895 10.1091C79.8895 10.1697 79.9035 10.2351 79.9175 10.2957ZM79.9175 11.4855C79.9361 11.4529 79.9548 11.4202 79.9781 11.3922C80.2161 11.1263 80.5194 10.9256 80.86 10.8136C80.9487 10.7716 81.0467 10.7203 81.1633 10.6597C81.5366 10.5243 81.7699 10.1511 81.7326 9.75446C81.7186 9.68913 81.6999 9.63314 81.6859 9.57715C81.5833 9.73113 81.4526 9.86178 81.3033 9.96909C81.0513 10.1604 80.6174 10.2677 80.3514 10.4684C80.2534 10.543 80.1648 10.6317 80.0855 10.725C79.9455 10.8836 79.8755 11.0889 79.8895 11.2989C79.8895 11.3596 79.9035 11.4249 79.9175 11.4855ZM80.0715 7.02951C80.0855 6.99684 80.1041 6.96418 80.1275 6.93619C80.3094 6.67489 80.5614 6.47425 80.8554 6.35293C80.93 6.31094 81.014 6.25961 81.1073 6.19896C81.4339 6.02631 81.6206 5.6717 81.5739 5.30308C81.5599 5.23309 81.5459 5.1771 81.5319 5.12577C81.4526 5.27042 81.35 5.40107 81.224 5.50839C81.014 5.69969 80.6594 5.80235 80.4401 6.00765C80.3561 6.08697 80.2814 6.17096 80.2161 6.26428C80.0715 6.48825 80.0201 6.76354 80.0715 7.02484V7.02951ZM80.1228 5.92833C80.1414 5.89567 80.1555 5.863 80.1741 5.83501C80.3421 5.57838 80.5754 5.37307 80.8554 5.24709C80.9253 5.2051 81 5.15377 81.0887 5.09311C81.3966 4.91114 81.5646 4.55652 81.5179 4.2019C81.5086 4.14125 81.4946 4.08525 81.4806 4.0246C81.4106 4.16924 81.3126 4.29522 81.196 4.40254C81.0047 4.58918 80.6734 4.6965 80.4681 4.90181C80.3888 4.98113 80.3188 5.06978 80.2581 5.1631C80.1508 5.33574 80.0995 5.53638 80.1041 5.74169C80.1088 5.81634 80.1181 5.877 80.1228 5.92366V5.92833ZM80.0528 12.4794C80.5847 12.5494 81.126 12.5494 81.6579 12.4794C81.7652 12.4934 81.8586 12.4234 81.8772 12.3161C81.8772 12.3021 81.8772 12.2834 81.8772 12.2694C81.8492 11.7982 81.7466 10.697 81.7326 10.655C81.6253 10.8136 81.4899 10.9583 81.3313 11.0703C81.014 11.3082 80.1928 11.4902 79.9455 11.9055C79.9082 11.9848 79.8848 12.0735 79.8848 12.1621C79.8848 12.3394 79.8895 12.4607 80.0528 12.4794ZM80.5334 4.44454C80.734 4.28123 81.3126 4.06659 81.4573 3.52533C81.5319 3.2547 81.3966 3.3107 81.3593 3.32469C81.0933 3.41801 80.8087 3.43668 80.5334 3.37602C80.4867 3.36669 80.4401 3.35269 80.3934 3.33403C80.3468 3.32003 80.2161 3.22204 80.2161 3.42268C80.2161 4.01993 80.2114 4.74316 80.2161 4.76649C80.3048 4.64051 80.4121 4.53319 80.5334 4.44454ZM80.5754 3.05873C81.2566 3.21738 81.9332 2.79277 82.0918 2.11153C82.1338 1.92489 82.1338 1.72892 82.0918 1.53761C81.9845 1.07101 81.6206 0.702395 81.154 0.595076C80.4727 0.436432 79.7915 0.856373 79.6329 1.53761C79.4742 2.21885 79.8942 2.90009 80.5754 3.05873ZM155.824 36.9106C154.644 37.9978 153.095 38.5997 151.489 38.5951V38.9917H88.0317V39.3603H151.489V39.7989C151.489 39.7989 153.533 39.5936 155.824 41.4367C159.034 39.379 161.75 39.2996 161.75 39.2996V39.057C159.636 38.8004 157.611 38.0678 155.824 36.9106ZM10.5106 38.5951C8.90545 38.5997 7.35634 38.0025 6.17584 36.9106C4.38875 38.0631 2.3637 38.7957 0.25 39.0523V39.295C0.25 39.295 2.96562 39.3743 6.17584 41.432C8.46685 39.5889 10.5106 39.7942 10.5106 39.7942V39.3556H73.9683V38.987H10.5106V38.5904V38.5951Z" fill="white"/>
</svg>
