<svg width="15" height="15" viewBox="0 0 15 15" fill="none" xmlns="http://www.w3.org/2000/svg">
<path fill-rule="evenodd" clip-rule="evenodd" d="M3.01831 0.494507H11.5874C13.1854 0.494507 14.4807 1.78989 14.4807 3.38781V11.0962C14.4807 11.4286 14.3486 11.7481 14.11 11.9782L11.5107 14.5051C11.2806 14.7309 10.9738 14.8545 10.6542 14.8545H3.01831C1.42038 14.8545 0.125 13.5591 0.125 11.9612V3.38781C0.125 1.78989 1.42038 0.494507 3.01831 0.494507ZM1.40334 3.38781V11.9612C1.40334 12.8518 2.12773 13.5762 3.01831 13.5762H9.59749V11.2879C9.59749 10.3548 10.1472 9.77524 11.0377 9.77524H13.2067V3.38781C13.2067 2.49724 12.4823 1.77285 11.5917 1.77285H3.01831C2.12773 1.77285 1.40334 2.49724 1.40334 3.38781ZM10.8716 13.3419L13.2024 11.0791V11.0536H11.0335C10.9525 11.0536 10.9099 11.0664 10.8971 11.0706C10.8983 11.0717 10.897 11.0764 10.8946 11.0856C10.8877 11.1112 10.8716 11.1719 10.8716 11.2879V13.3419ZM10.4923 8.30089H4.23273C3.87906 8.30089 3.59356 8.0154 3.59356 7.66172C3.59356 7.30805 3.87906 7.02256 4.23273 7.02256H10.4923C10.846 7.02256 11.1315 7.30805 11.1315 7.66172C11.1315 8.0154 10.846 8.30089 10.4923 8.30089ZM4.23273 5.05391H10.4923C10.846 5.05391 11.1315 4.76842 11.1315 4.41474C11.1315 4.06107 10.846 3.77557 10.4923 3.77557H4.23273C3.87906 3.77557 3.59356 4.06107 3.59356 4.41474C3.59356 4.76842 3.87906 5.05391 4.23273 5.05391ZM4.23273 10.2695H7.70555C8.05922 10.2695 8.34472 10.555 8.34472 10.9087C8.34472 11.2624 8.05922 11.5479 7.70555 11.5479H4.23273C3.87906 11.5479 3.59356 11.2624 3.59356 10.9087C3.59356 10.555 3.87906 10.2695 4.23273 10.2695Z" fill="#30A5FF"/>
</svg>
