<svg width="20" height="15" viewBox="0 0 20 15" fill="none" xmlns="http://www.w3.org/2000/svg">
<path d="M7.58115 0.507554L8.04792 1.52057C9.46193 1.29085 10.9359 1.29904 12.3504 1.52057C12.422 1.33434 12.7161 0.517275 12.8857 0.498856C14.2037 0.726529 15.4877 1.12867 16.6981 1.69043C18.6987 4.58775 19.7297 8.11079 19.554 11.6599C19.5454 11.838 19.5047 12.41 19.4291 12.5046C19.2513 12.7272 18.2924 13.2884 17.9957 13.4603C17.6184 13.6793 17.2278 13.8906 16.8326 14.0758C16.5264 14.2196 14.9884 14.8872 14.7624 14.8519C14.6573 14.8356 14.2439 14.1735 14.157 14.0282C14.0001 13.7658 13.8589 13.4895 13.7222 13.2163C13.9899 13.1012 15.09 12.6975 15.2195 12.5021C15.2942 12.3895 15.0215 12.2094 14.9432 12.1659C12.1167 13.4516 9.21204 13.5309 6.29514 12.5015C6.16207 12.4545 5.48706 12.1429 5.44186 12.1516C5.39666 12.1603 5.05484 12.4263 5.10512 12.4995L6.62426 13.2439L5.70343 14.8392L5.6374 14.8545C3.9217 14.3935 2.35227 13.5059 0.908806 12.4893C0.575112 9.16372 1.25875 5.91797 2.86526 3.0186C3.0095 2.75768 3.55652 1.79071 3.74901 1.66229C3.9537 1.52569 4.52915 1.32411 4.78768 1.22741C5.13407 1.09797 7.40136 0.392439 7.58115 0.507042V0.507554ZM6.71315 6.53755C4.98424 6.82969 4.95122 10.0959 6.9092 10.2985C9.36441 10.5523 9.42079 6.08067 6.71315 6.53755ZM12.9482 6.53755C11.199 6.8348 11.1766 10.0944 13.1442 10.2985C15.6005 10.5528 15.6269 6.08272 12.9482 6.53755Z" fill="#30A5FF"/>
</svg>
